<svg version="1.1" viewBox="0.0 0.0 408.0 408.0" fill="none" stroke="none" stroke-linecap="square" stroke-miterlimit="10" xmlns:xlink="http://www.w3.org/1999/xlink" xmlns="http://www.w3.org/2000/svg"><clipPath id="p.0"><path d="m0 0l408.0 0l0 408.0l-408.0 0l0 -408.0z" clip-rule="nonzero"/></clipPath><g clip-path="url(#p.0)"><path fill="#000000" fill-opacity="0.0" d="m0 0l408.0 0l0 408.0l-408.0 0z" fill-rule="evenodd"/><path fill="#000000" d="m0 0l409.6063 0l0 408.0l-409.6063 0z" fill-rule="evenodd"/><path fill="#000000" fill-opacity="0.0" d="m-88.94197 -145.90868l324.8504 0l0 601.7323l-324.8504 0z" fill-rule="evenodd"/><path fill="#ffffff" d="m-57.801342 275.0913l49.21875 -4.171875q5.46875 35.9375 25.390625 54.046875q19.921877 18.09375 48.046875 18.09375q33.84375 0 57.28125 -25.515625q23.4375 -25.53125 23.4375 -67.718735q0 -40.09375 -22.53125 -63.265625q-22.515625 -23.1875 -58.96875 -23.1875q-22.656246 0 -40.890625 10.296875q-18.234375 10.28125 -28.640625 26.6875l-44.015625 -5.734375l36.984375 -196.09375l189.84375 0l0 44.796875l-152.34375 0l-20.578125 102.59375q34.375 -23.953133 72.140625 -23.953133q50.0 0 84.359375 34.640633q34.375 34.625 34.375 89.0625q0 51.812485 -30.203125 89.57811q-36.71875 46.359375 -100.25 46.359375q-52.093746 0 -85.03125 -29.171875q-32.9375 -29.171875 -37.625 -77.34375z" fill-rule="nonzero"/><path fill="#000000" fill-opacity="0.0" d="m100.01162 -279.38586l324.8504 0l0 601.7323l-324.8504 0z" fill-rule="evenodd"/><path fill="#ffffff" d="m374.371 -46.66711l-46.609375 3.65625q-6.25 -27.609379 -17.703125 -40.10938q-19.015625 -20.046875 -46.875 -20.046875q-22.40625 0 -39.328125 12.5q-22.140625 16.140625 -34.90625 47.125004q-12.75 30.984375 -13.265625 88.28125q16.921875 -25.78125 41.390625 -38.28125q24.484375 -12.5 51.3125 -12.5q46.875 0 79.8125 34.515625q32.9375 34.5 32.9375 89.1875q0 35.9375 -15.5 66.796875q-15.484375 30.859375 -42.5625 47.265625q-27.078125 16.40625 -61.453125 16.40625q-58.59375 0 -95.578125 -43.09375q-36.984375 -43.109375 -36.984375 -142.0625q0 -110.671875 40.890625 -160.9375q35.671875 -43.75 96.09375 -43.75q45.046875 0 73.828125 25.265625q28.78125 25.25 34.5 69.78125zm-191.40625 164.57812q0 24.21875 10.28125 46.359375q10.296875 22.140625 28.78125 33.734375q18.5 11.578125 38.8125 11.578125q29.6875 0 51.03125 -23.953125q21.359375 -23.96875 21.359375 -65.109375q0 -39.578125 -21.09375 -62.35937q-21.09375 -22.796875 -53.125 -22.796875q-31.765625 0 -53.90625 22.796875q-22.140625 22.781246 -22.140625 59.749996z" fill-rule="nonzero"/><path fill="#000000" fill-opacity="0.0" d="m-115.23958 87.183556l324.8504 0l0 601.7323l-324.8504 0z" fill-rule="evenodd"/><path fill="#ffffff" d="m92.46355 608.18353l-46.875004 0l0 -298.68747q-16.937498 16.140625 -44.40625 32.28125q-27.46875 16.140625 -49.34375 24.21875l0 -45.3125q39.3125 -18.484375 68.734375 -44.78125q29.437498 -26.312515 41.671875 -51.04689l30.218754 0l0 383.32812z" fill-rule="nonzero"/><path fill="#000000" fill-opacity="0.0" d="m181.04962 -20.618853l324.8504 0l0 601.73224l-324.8504 0z" fill-rule="evenodd"/><path fill="#ffffff" d="m362.44025 500.38113l0 -91.40625l-165.625 0l0 -42.96875l174.21875 -247.39061l38.28125 0l0 247.39061l51.5625 0l0 42.96875l-51.5625 0l0 91.40625l-46.875 0zm0 -134.375l0 -172.12498l-119.53125 172.12498l119.53125 0z" fill-rule="nonzero"/></g></svg>